<svg width="44" height="44" viewBox="0 0 44 44" fill="none" xmlns="http://www.w3.org/2000/svg">
<path fill-rule="evenodd" clip-rule="evenodd" d="M15.125 12.375C15.125 10.5516 15.8493 8.80295 17.1386 7.51364C18.428 6.22433 20.1766 5.5 22 5.5C23.8234 5.5 25.572 6.22433 26.8614 7.51364C28.1507 8.80295 28.875 10.5516 28.875 12.375C28.875 14.1984 28.1507 15.947 26.8614 17.2364C25.572 18.5257 23.8234 19.25 22 19.25C20.1766 19.25 18.428 18.5257 17.1386 17.2364C15.8493 15.947 15.125 14.1984 15.125 12.375ZM28.875 17.875C28.875 16.4163 29.4545 15.0174 30.4859 13.9859C31.5174 12.9545 32.9163 12.375 34.375 12.375C35.8337 12.375 37.2326 12.9545 38.2641 13.9859C39.2955 15.0174 39.875 16.4163 39.875 17.875C39.875 19.3337 39.2955 20.7326 38.2641 21.7641C37.2326 22.7955 35.8337 23.375 34.375 23.375C32.9163 23.375 31.5174 22.7955 30.4859 21.7641C29.4545 20.7326 28.875 19.3337 28.875 17.875ZM4.125 17.875C4.125 16.4163 4.70446 15.0174 5.73591 13.9859C6.76736 12.9545 8.16631 12.375 9.625 12.375C11.0837 12.375 12.4826 12.9545 13.5141 13.9859C14.5455 15.0174 15.125 16.4163 15.125 17.875C15.125 19.3337 14.5455 20.7326 13.5141 21.7641C12.4826 22.7955 11.0837 23.375 9.625 23.375C8.16631 23.375 6.76736 22.7955 5.73591 21.7641C4.70446 20.7326 4.125 19.3337 4.125 17.875ZM11.5683 27.7145C12.6866 25.9619 14.2286 24.5195 16.052 23.5206C17.8753 22.5218 19.921 21.9988 22 22C23.7413 21.9984 25.4634 22.3646 27.0534 23.0746C28.6434 23.7846 30.0655 24.8225 31.2267 26.1202C32.3878 27.4179 33.2618 28.9462 33.7914 30.605C34.321 32.2639 34.4942 34.0159 34.2998 35.7463C34.2761 35.9613 34.2019 36.1677 34.0834 36.3486C33.9649 36.5295 33.8054 36.68 33.6178 36.7877C30.0824 38.8163 26.0761 39.8809 22 39.875C17.7742 39.875 13.805 38.753 10.3822 36.7877C10.1946 36.68 10.0351 36.5295 9.91658 36.3486C9.79808 36.1677 9.72393 35.9613 9.70017 35.7463C9.39227 32.9351 10.0512 30.1029 11.5683 27.7163V27.7145Z" fill="#0D6EFD"/>
<path d="M9.317 26.1323C7.50888 28.9234 6.66646 32.2306 6.919 35.5465C5.81809 35.3796 4.73532 35.1095 3.685 34.7398L3.47416 34.6665C3.28605 34.5997 3.12134 34.4799 2.99997 34.3214C2.8786 34.1629 2.80578 33.9727 2.79033 33.7737L2.772 33.5518C2.69794 32.6314 2.81005 31.7055 3.10164 30.8294C3.39322 29.9533 3.85831 29.1449 4.46916 28.4524C5.08 27.76 5.82407 27.1976 6.65697 26.799C7.48988 26.4004 8.39455 26.1737 9.317 26.1323ZM37.081 35.5465C37.3335 32.2306 36.4911 28.9234 34.683 26.1323C35.6054 26.1737 36.5101 26.4004 37.343 26.799C38.1759 27.1976 38.92 27.76 39.5308 28.4524C40.1417 29.1449 40.6068 29.9533 40.8984 30.8294C41.1899 31.7055 41.3021 32.6314 41.228 33.5518L41.2097 33.7737C41.1939 33.9723 41.1209 34.1622 40.9995 34.3203C40.8782 34.4784 40.7137 34.598 40.5258 34.6647L40.315 34.738C39.2755 35.1047 38.1957 35.3778 37.081 35.5465Z" fill="#0D6EFD"/>
</svg>
